<svg xmlns="http://www.w3.org/2000/svg" width="21" height="21.002" viewBox="0 0 21 21.002">
  <path id="Union_2" data-name="Union 2" d="M-3885.8,2236.236l-6.833-6.834-6.833,6.834a2.148,2.148,0,0,1-3.037,0,2.148,2.148,0,0,1,0-3.038l6.834-6.834-6.834-6.835a2.147,2.147,0,0,1,0-3.037,2.146,2.146,0,0,1,3.036,0l6.835,6.835,6.834-6.834a2.146,2.146,0,0,1,3.037,0,2.146,2.146,0,0,1,0,3.036l-6.834,6.834,6.834,6.834a2.148,2.148,0,0,1,0,3.038,2.142,2.142,0,0,1-1.519.629A2.142,2.142,0,0,1-3885.8,2236.236Z" transform="translate(3903.136 -2215.863)" fill="#01282f"/>
</svg>
