<svg xmlns="http://www.w3.org/2000/svg" width="26.612" height="26.708" viewBox="0 0 26.612 26.708">
  <g id="download" transform="translate(-0.005 0.025)">
    <path id="Path_36" data-name="Path 36" d="M46.7,65.46H35.11a1.6,1.6,0,0,1-1.57-1,1.79,1.79,0,0,1-.14-.73q0-3.225,0-6.44a1.73,1.73,0,0,1,.8-1.59,1.66,1.66,0,0,1,2.42.84,2.38,2.38,0,0,1,.11.8v4.47c0,.32,0,.32.32.32H56.46c.26,0,.26,0,.26-.27V57.19A1.67,1.67,0,0,1,60,56.92a1.93,1.93,0,0,1,0,.34v6.5a1.6,1.6,0,0,1-1,1.59,2.11,2.11,0,0,1-.71.11Z" transform="translate(-33.39 -38.78)" fill="#01282f"/>
    <path id="Path_37" data-name="Path 37" d="M48.45,53l.31-.27q1.68-1.7,3.37-3.38a1.74,1.74,0,0,1,1.36-.57,1.69,1.69,0,0,1,1.56,1.49,1.76,1.76,0,0,1-.54,1.42L48,58.23a1.66,1.66,0,0,1-2.47,0l-5.76-5.76-.85-.85a1.66,1.66,0,0,1,.6-2.75,1.57,1.57,0,0,1,1.73.38c1.05,1,2.08,2.07,3.11,3.1l.58.58L45,53V40.56a1.72,1.72,0,0,1,.49-1.31,1.66,1.66,0,0,1,2.84,1.07V52.91Z" transform="translate(-33.39 -38.78)" fill="#01282f"/>
  </g>
</svg>
