<svg xmlns="http://www.w3.org/2000/svg" width="26.666" height="26.686" viewBox="0 0 26.666 26.686">
  <g id="Group_131" data-name="Group 131" transform="translate(-33.387 -38.776)">
    <path id="Path_95" data-name="Path 95" d="M46.7,65.46q-5.794,0-11.59,0a1.6,1.6,0,0,1-1.569-1,1.883,1.883,0,0,1-.145-.724c-.01-2.149,0-4.3-.009-6.447a1.736,1.736,0,0,1,.806-1.591,1.662,1.662,0,0,1,2.42.846,2.69,2.69,0,0,1,.108.8c.01,1.489.005,2.978.005,4.467,0,.317,0,.317.327.317h19.41c.254,0,.255,0,.255-.262q0-2.337,0-4.675a1.675,1.675,0,0,1,1.352-1.7,1.649,1.649,0,0,1,1.976,1.431,3.1,3.1,0,0,1,.01.348q0,3.249,0,6.5a1.608,1.608,0,0,1-1.1,1.585,2.212,2.212,0,0,1-.715.109q-5.771.009-11.539,0Z" fill="#01282f"/>
    <path id="Path_96" data-name="Path 96" d="M48.455,53.012c.1-.091.2-.178.3-.274q1.686-1.689,3.37-3.382a1.755,1.755,0,0,1,1.363-.569,1.677,1.677,0,0,1,1.557,1.488,1.729,1.729,0,0,1-.54,1.425q-3.271,3.262-6.536,6.534a1.664,1.664,0,0,1-2.47.017q-2.883-2.878-5.759-5.761c-.283-.283-.568-.563-.849-.846a1.665,1.665,0,0,1,.6-2.758,1.573,1.573,0,0,1,1.732.382c1.043,1.028,2.074,2.068,3.109,3.1.193.192.384.385.578.576a.888.888,0,0,0,.124.081c.008-.085.018-.144.018-.2q0-6.117,0-12.233a1.729,1.729,0,0,1,.486-1.313,1.609,1.609,0,0,1,1.728-.406,1.626,1.626,0,0,1,1.113,1.472c0,.133.009.266.009.4q0,6.029,0,12.059c0,.061.009.121.014.182Z" fill="#01282f"/>
  </g>
</svg>
