<svg id="Layer_1" data-name="Layer 1" xmlns="http://www.w3.org/2000/svg" xmlns:xlink="http://www.w3.org/1999/xlink" viewBox="0 0 162.29 43.01"><defs><style>.cls-1{fill:#fff;}.cls-2,.cls-5{isolation:isolate;}.cls-3{fill:#acb9c3;}.cls-4{fill:#01282f;}.cls-5{fill:#b4b4b4;opacity:0.05;}.cls-6{fill:url(#linear-gradient);}</style><linearGradient id="linear-gradient" x1="-317.02" y1="318.76" x2="-317.08" y2="318.08" gradientTransform="matrix(22.34, 0, 0, -22.19, 7128.68, 7109.54)" gradientUnits="userSpaceOnUse"><stop offset="0" stop-color="#fff"/><stop offset="1" stop-color="#fff" stop-opacity="0"/></linearGradient></defs><circle id="Ellipse_44-2" data-name="Ellipse 44-2" class="cls-1" cx="21.5" cy="21.51" r="19.79"/><g class="cls-2"><path class="cls-3" d="M81.08,41.54V46h-1.5V34.62h4.19a4.2,4.2,0,0,1,2.93,1,3.25,3.25,0,0,1,1.06,2.52,3.17,3.17,0,0,1-1,2.55,4.38,4.38,0,0,1-3,.9Zm0-1.23h2.69a2.71,2.71,0,0,0,1.85-.57,2.08,2.08,0,0,0,.64-1.64,2.15,2.15,0,0,0-.64-1.62,2.55,2.55,0,0,0-1.76-.64H81.08Z" transform="translate(-23.98 -18.63)"/><path class="cls-3" d="M92.88,46h-1.5V34.62h1.5Z" transform="translate(-23.98 -18.63)"/><path class="cls-3" d="M106,46h-1.5l-5.73-8.77V46H97.22V34.62h1.51l5.74,8.8v-8.8H106Z" transform="translate(-23.98 -18.63)"/><path class="cls-3" d="M117.3,44.76h5.39V46h-6.9V34.62h1.51Z" transform="translate(-23.98 -18.63)"/><path class="cls-3" d="M127.61,46h-1.5V34.62h1.5Z" transform="translate(-23.98 -18.63)"/><path class="cls-3" d="M132,46V34.62h3.72a4.36,4.36,0,0,1,2.79.76,2.77,2.77,0,0,1,.93,2.27,2.33,2.33,0,0,1-.45,1.41,3.05,3.05,0,0,1-1.24.95,2.64,2.64,0,0,1,1.46,1,2.84,2.84,0,0,1,.53,1.72,3.06,3.06,0,0,1-1,2.41,4.12,4.12,0,0,1-2.8.87Zm1.5-6.52h2.27a2.36,2.36,0,0,0,1.57-.5,1.66,1.66,0,0,0,.59-1.34,1.6,1.6,0,0,0-.55-1.36,2.64,2.64,0,0,0-1.66-.43h-2.22Zm0,1.2v4.09h2.48a2.39,2.39,0,0,0,1.65-.54,1.92,1.92,0,0,0,.61-1.5c0-1.37-.75-2-2.24-2Z" transform="translate(-23.98 -18.63)"/><path class="cls-3" d="M147.68,41.39H145V46H143.5V34.62h3.77a4.49,4.49,0,0,1,3,.87,3.14,3.14,0,0,1,1,2.55,3.08,3.08,0,0,1-.57,1.85,3.45,3.45,0,0,1-1.6,1.18l2.67,4.83V46h-1.61ZM145,40.16h2.31a2.57,2.57,0,0,0,1.77-.58,2,2,0,0,0,.66-1.55,2.07,2.07,0,0,0-.63-1.62,2.68,2.68,0,0,0-1.81-.57H145Z" transform="translate(-23.98 -18.63)"/><path class="cls-3" d="M161.24,43h-4.76l-1.07,3h-1.55l4.35-11.37h1.31L163.87,46h-1.54Zm-4.31-1.22h3.87l-1.94-5.32Z" transform="translate(-23.98 -18.63)"/></g><g class="cls-2"><path class="cls-3" d="M171.17,41.39H168.5V46H167V34.62h3.77a4.49,4.49,0,0,1,3,.87,3.14,3.14,0,0,1,1,2.55,3.08,3.08,0,0,1-.57,1.85,3.45,3.45,0,0,1-1.6,1.18l2.67,4.83V46h-1.61Zm-2.67-1.23h2.31a2.57,2.57,0,0,0,1.77-.58,2,2,0,0,0,.66-1.55,2.07,2.07,0,0,0-.63-1.62,2.7,2.7,0,0,0-1.81-.57h-2.3Z" transform="translate(-23.98 -18.63)"/></g><g class="cls-2"><path class="cls-3" d="M181.6,40.33l3-5.71h1.7l-3.92,7.13V46h-1.5V41.75l-3.92-7.13h1.72Z" transform="translate(-23.98 -18.63)"/></g><circle id="Ellipse_47-2" data-name="Ellipse 47-2" class="cls-4" cx="21.5" cy="21.5" r="21.5"/><path id="md-globe-2-2" class="cls-5" d="M45.48,18.84a21.3,21.3,0,1,0,21.3,21.3h0A21.3,21.3,0,0,0,45.48,18.84Zm-2.2,39.42a18.25,18.25,0,0,1-11.68-30,22.63,22.63,0,0,1,.2,2.47c-.17,2.44-.41,4,1,6a9.63,9.63,0,0,1,1,2.9c.26.9,1.32,1.38,2,1.94,1.47,1.13,2.87,2.44,4.43,3.43,1,.66,1.68,1,1.37,2.24a7.8,7.8,0,0,1-.81,2.53,5.08,5.08,0,0,0,.86,2.3c.76.76,1.53,1.47,2.36,2.16C45.32,55.33,43.91,56.72,43.28,58.26ZM58.39,53a18.07,18.07,0,0,1-9.47,5,7.5,7.5,0,0,1,2.24-3,7.57,7.57,0,0,0,2-2.49,17.25,17.25,0,0,1,1.4-2.38c.72-1.11-1.78-2.8-2.6-3.15a26.53,26.53,0,0,1-4.83-3c-1.16-.81-3.5.41-4.81-.14a24.89,24.89,0,0,1-4.82-3.32C35.88,39.35,36,38,36,36.17c1.26,0,3.05-.34,3.88.67.27.31,1.17,1.74,1.78,1.22s-.37-2.07-.54-2.44c-.51-1.22,1.17-1.67,2-2.49,1.12-1.06,3.53-2.72,3.34-3.48s-2.42-2.92-3.72-2.59c-.2.05-1.92,1.86-2.25,2.14,0-.59,0-1.18,0-1.76,0-.37-.7-.76-.67-1,.09-.6,1.78-1.7,2.19-2.18-.3-.19-1.3-1.05-1.6-.92-.73.31-1.56.51-2.3.81a4.49,4.49,0,0,0-.06-.73,18.3,18.3,0,0,1,4.64-1.35l1.44.58,1,1.22,1,1.05.89.29,1.41-1.33-.36-.95v-.86a18.07,18.07,0,0,1,7.73,3.06c-.4,0-.86.1-1.37.16a4.41,4.41,0,0,0-.72-.26c.67,1.44,1.37,2.85,2.08,4.27s2.44,3.15,2.73,4.75c.34,1.88.1,3.6.3,5.81s2.41,4.57,2.41,4.57a4.77,4.77,0,0,0,1.88.22A18.11,18.11,0,0,1,58.39,53Z" transform="translate(-23.98 -18.63)"/><path id="Path_92" data-name="Path 92" class="cls-6" d="M33.9,51.63l5.4-18.84a2.47,2.47,0,0,0,.13-.71,1.39,1.39,0,0,0-.1-.53c-.07-.14-.16-.31-.27-.5a1.2,1.2,0,0,1-.26-.6,1.7,1.7,0,0,1,.06-.31.8.8,0,0,1,.5-.53,3.36,3.36,0,0,1,1.18-.15H50a7.24,7.24,0,0,1,4.66,1.31,4.23,4.23,0,0,1,1.63,3.47,7.23,7.23,0,0,1-3.38,6,11.62,11.62,0,0,1-5.94,1.37H44l-2.8,10m8.36-17.94C49.53,32.57,49,32,48,32H46.71l-2,7h1.27a2.61,2.61,0,0,0,2-.76,6.49,6.49,0,0,0,1.3-2.77A6.49,6.49,0,0,0,49.53,33.68Z" transform="translate(-23.98 -18.63)"/></svg>