<svg id="Layer_1" data-name="Layer 1" xmlns="http://www.w3.org/2000/svg" viewBox="0 0 106.71 32.13"><defs><style>.cls-1{fill:#01282f;}.cls-2{fill:none;}</style></defs><path id="Path_40" data-name="Path 40" class="cls-1" d="M74.79,45.84a4.92,4.92,0,0,1-1.15-.51l.19-1.53a3.64,3.64,0,0,0,1.07.6,4.15,4.15,0,0,0,1.6.28,2.29,2.29,0,0,0,1.26-.28.87.87,0,0,0,.44-.79,1,1,0,0,0-.49-.89,4.57,4.57,0,0,0-1.23-.51,9.25,9.25,0,0,1-1.35-.44,2.58,2.58,0,0,1-.95-.72,2,2,0,0,1-.38-1.3,2.39,2.39,0,0,1,.79-1.84A3.5,3.5,0,0,1,77,37.17a6,6,0,0,1,1.28.14,7.47,7.47,0,0,1,1.06.4l-.2,1.44a3.19,3.19,0,0,0-.93-.54,2.91,2.91,0,0,0-1.17-.19,2.14,2.14,0,0,0-1.21.28,1,1,0,0,0-.44.86.86.86,0,0,0,.21.61,1.6,1.6,0,0,0,.6.39c.26.1.65.24,1.19.4a4.76,4.76,0,0,1,1.72.84,2,2,0,0,1,.72,1.72,2.45,2.45,0,0,1-.74,1.8,3.42,3.42,0,0,1-2.52.76A6.85,6.85,0,0,1,74.79,45.84Z" transform="translate(-52.65 -24.07)"/><path id="Path_41" data-name="Path 41" class="cls-1" d="M83,45.47a4,4,0,0,1-1.58-1.63,4.72,4.72,0,0,1-.54-2.3,4.82,4.82,0,0,1,.49-2.21,3.82,3.82,0,0,1,1.46-1.6,4.19,4.19,0,0,1,2.24-.58,3.67,3.67,0,0,1,2.67,1,3.47,3.47,0,0,1,1,2.66,3.92,3.92,0,0,1-.07.84H82.46a3.3,3.3,0,0,0,1,2.37,3.34,3.34,0,0,0,2.21.7,6.05,6.05,0,0,0,2.48-.51l.21,1.25a7,7,0,0,1-2.88.66A5.28,5.28,0,0,1,83,45.47Zm4.16-5a2,2,0,0,0-.53-1.46,2.16,2.16,0,0,0-1.58-.53,2.39,2.39,0,0,0-1.6.5,2.7,2.7,0,0,0-.82,1.47h4.52Z" transform="translate(-52.65 -24.07)"/><path id="Path_42" data-name="Path 42" class="cls-1" d="M90.37,37.3H91.6l.17.91a4,4,0,0,1,1.37-.84,4.25,4.25,0,0,1,1.46-.23c2.33,0,3.5,1.35,3.5,4v4.74H96.52V41.17a3.15,3.15,0,0,0-.5-2,2.12,2.12,0,0,0-1.72-.61,3.37,3.37,0,0,0-1.4.28,2,2,0,0,0-1,.84v6.25H90.37Z" transform="translate(-52.65 -24.07)"/><path id="Path_43" data-name="Path 43" class="cls-1" d="M101.31,45.47a2.07,2.07,0,0,1-.54-1.46V38.52H99.3l.14-1.22h1.33V35.17l1.58-.15V37.3h2.26v1.22h-2.26v4.53a5.11,5.11,0,0,0,.1,1.23.59.59,0,0,0,.44.42,5.23,5.23,0,0,0,1.25.09h.4l-.13,1.26H103A2.11,2.11,0,0,1,101.31,45.47Z" transform="translate(-52.65 -24.07)"/><path id="Path_44" data-name="Path 44" class="cls-1" d="M105.94,33.61h1.58v1.76h-1.58Zm0,3.69h1.58v8.59h-1.58Z" transform="translate(-52.65 -24.07)"/><path id="Path_45" data-name="Path 45" class="cls-1" d="M109.66,37.3h1.23l.18.91a3.92,3.92,0,0,1,1.36-.84,4.29,4.29,0,0,1,1.46-.23c2.33,0,3.51,1.35,3.51,4v4.74h-1.58V41.17a3.15,3.15,0,0,0-.51-2,2.11,2.11,0,0,0-1.72-.61,3.37,3.37,0,0,0-1.4.28,2,2,0,0,0-1,.84v6.25h-1.58Z" transform="translate(-52.65 -24.07)"/><path id="Path_46" data-name="Path 46" class="cls-1" d="M121.06,45.47a4,4,0,0,1-1.58-1.63,4.84,4.84,0,0,1-.54-2.3,5.13,5.13,0,0,1,.49-2.21,3.82,3.82,0,0,1,1.46-1.6,4.19,4.19,0,0,1,2.24-.58,3.67,3.67,0,0,1,2.67,1,3.47,3.47,0,0,1,1,2.66,3.37,3.37,0,0,1-.07.84h-6.22a3.3,3.3,0,0,0,1,2.37,3.36,3.36,0,0,0,2.21.7,6,6,0,0,0,2.48-.51l.21,1.25a7,7,0,0,1-2.88.66A5.28,5.28,0,0,1,121.06,45.47Zm4.16-5a2,2,0,0,0-.53-1.46,2.16,2.16,0,0,0-1.58-.53,2.39,2.39,0,0,0-1.6.5,2.7,2.7,0,0,0-.82,1.47h4.53Z" transform="translate(-52.65 -24.07)"/><path id="Path_47" data-name="Path 47" class="cls-1" d="M129,45.47a2.15,2.15,0,0,1-.53-1.47V32.74H130V43.08a5.33,5.33,0,0,0,.09,1.13.74.74,0,0,0,.36.47,2.41,2.41,0,0,0,.92.12l-.23,1.27h-.51A2.13,2.13,0,0,1,129,45.47Z" transform="translate(-52.65 -24.07)"/><path id="Path_48" data-name="Path 48" class="cls-1" d="M139.16,38.19A4.46,4.46,0,0,1,140,41.1v4.79h-1.58v-4.6a3.43,3.43,0,0,0-.51-2.09,1.84,1.84,0,0,0-1.6-.66,2.62,2.62,0,0,0-1.22.3,2.8,2.8,0,0,0-1,.86v6.19h-1.6V32.74h1.6v5.38a3.28,3.28,0,0,1,1.1-.74,3.56,3.56,0,0,1,1.4-.24A3,3,0,0,1,139.16,38.19Z" transform="translate(-52.65 -24.07)"/><path id="Path_49" data-name="Path 49" class="cls-1" d="M142.81,45.14a4.22,4.22,0,0,1-.8-2.83v-5h1.57v4.56a3.85,3.85,0,0,0,.48,2.1,1.69,1.69,0,0,0,1.51.7,2.83,2.83,0,0,0,1.15-.25,1.76,1.76,0,0,0,.83-.74V37.3h1.58v8.59h-1.4l-.18-1a2.68,2.68,0,0,1-1,.85,3.47,3.47,0,0,1-1.39.26A3,3,0,0,1,142.81,45.14Z" transform="translate(-52.65 -24.07)"/><path id="Path_50" data-name="Path 50" class="cls-1" d="M157.53,37.73a3.92,3.92,0,0,1,1.35,1.64,5.08,5.08,0,0,1,.47,2.21,4.87,4.87,0,0,1-.51,2.24,4,4,0,0,1-1.4,1.61,3.3,3.3,0,0,1-1.94.6,3.81,3.81,0,0,1-1.53-.31,2.51,2.51,0,0,1-1.14-.9l-.17,1.06h-1.4V32.72h1.57v5.56a3.21,3.21,0,0,1,1.17-.86,3.62,3.62,0,0,1,1.48-.32A3.67,3.67,0,0,1,157.53,37.73Zm-.46,6.06a3.9,3.9,0,0,0,0-4.37,2.11,2.11,0,0,0-1.77-.86,2.38,2.38,0,0,0-1.82.79,3.16,3.16,0,0,0-.74,2.26,3.3,3.3,0,0,0,.72,2.3,2.38,2.38,0,0,0,1.82.77,2.18,2.18,0,0,0,1.79-.89Z" transform="translate(-52.65 -24.07)"/><g id="Group_19" data-name="Group 19"><g id="Group_18" data-name="Group 18"><g id="Group_17" data-name="Group 17"><path id="Path_51" data-name="Path 51" class="cls-1" d="M157,51.36V49.79h1.47v-.25H157V48.15h1.56v-.26h-1.86v3.74h1.95v-.27Z" transform="translate(-52.65 -24.07)"/><path id="Path_52" data-name="Path 52" class="cls-1" d="M153.93,49.56c-.56-.21-.75-.42-.75-.81s.16-.65.77-.65a1,1,0,0,1,.63.18h0l.12-.26v0a1.47,1.47,0,0,0-.74-.17,1,1,0,0,0-1.08.91.09.09,0,0,0,0,0c0,.48.3.81,1,1s.73.44.73.84a.76.76,0,0,1-.76.76h-.1a1.44,1.44,0,0,1-.8-.24l0,0-.12.26v0a1.68,1.68,0,0,0,.9.26,1.06,1.06,0,0,0,1.18-.92s0-.08,0-.11c0-.61-.39-.9-.95-1.12" transform="translate(-52.65 -24.07)"/><path id="Path_53" data-name="Path 53" class="cls-1" d="M150.64,47.89v3.74h.3V47.89Z" transform="translate(-52.65 -24.07)"/><path id="Path_54" data-name="Path 54" class="cls-1" d="M147.55,50h.86v1.26a1.64,1.64,0,1,1-.7-3.14,1.72,1.72,0,0,1,.77.16l0,0,.1-.26h0a2,2,0,0,0-2.8,1.54.67.67,0,0,0,0,.2,2,2,0,0,0,.51,1.4,1.8,1.8,0,0,0,1.31.49,2.93,2.93,0,0,0,1.09-.21h0v-1.7h-1.16Z" transform="translate(-52.65 -24.07)"/><path id="Path_55" data-name="Path 55" class="cls-1" d="M144.27,51.59a5,5,0,0,1-.28-1,1,1,0,0,0-.56-.79,1,1,0,0,0,.43-1.63,1.38,1.38,0,0,0-1-.32,6.82,6.82,0,0,0-.79.07h0v3.69h.3V49.94h.56c.46,0,.7.25.81.78a6.84,6.84,0,0,0,.23.89v0h.31Zm-1.91-1.91V48.17a2.1,2.1,0,0,1,.51-.05c.43,0,1,.14,1,.77a.73.73,0,0,1-.25.56,1,1,0,0,1-.67.21h-.57Z" transform="translate(-52.65 -24.07)"/><path id="Path_56" data-name="Path 56" class="cls-1" d="M138.62,49.79h1.48v-.25h-1.48V48.15h1.56v-.26h-1.86v3.74h2v-.27h-1.65Z" transform="translate(-52.65 -24.07)"/><path id="Path_57" data-name="Path 57" class="cls-1" d="M136,47.89v1.86c0,.6,0,1,0,1.44-.18-.33-.37-.65-.67-1.11l-1.44-2.19h-.28v3.74h.3v-1.9c0-.58,0-1,0-1.4a9.22,9.22,0,0,0,.65,1.09l0,.07L136,51.65h.28V47.91H136Z" transform="translate(-52.65 -24.07)"/><path id="Path_58" data-name="Path 58" class="cls-1" d="M131.27,47.89v3.74h.3V47.89Z" transform="translate(-52.65 -24.07)"/><path id="Path_59" data-name="Path 59" class="cls-1" d="M128.47,49.56c-.57-.21-.76-.42-.76-.81s.16-.65.77-.65a1,1,0,0,1,.63.18h0l.13-.26,0,0a1.47,1.47,0,0,0-.74-.17,1,1,0,0,0-1.08.91s0,0,0,0c0,.48.3.81,1,1,.52.21.74.44.74.84a.76.76,0,0,1-.76.76h-.1a1.45,1.45,0,0,1-.81-.24l0,0-.12.26,0,0a1.68,1.68,0,0,0,.89.26,1.06,1.06,0,0,0,1.19-.92v-.11c0-.61-.38-.9-.94-1.12" transform="translate(-52.65 -24.07)"/></g><path id="Path_60" data-name="Path 60" class="cls-1" d="M119.71,47.79H120v1.73h0a1,1,0,0,1,1-.54,1.17,1.17,0,0,1,1.13,1.23.34.34,0,0,1,0,.1A1.23,1.23,0,0,1,121,51.69h-.08a1,1,0,0,1-.93-.53h0l0,.47h-.23a6,6,0,0,0,0-.61V47.79Zm.27,2.84a.61.61,0,0,0,0,.19.87.87,0,0,0,.86.65c.6,0,.93-.49.93-1.16s-.33-1.12-.91-1.12a.9.9,0,0,0-.86.7.85.85,0,0,0,0,.23Z" transform="translate(-52.65 -24.07)"/><path id="Path_61" data-name="Path 61" class="cls-1" d="M122.57,49l.69,1.7c.07.19.14.4.19.56h0l.19-.58.63-1.68h.28L123.8,51a4,4,0,0,1-.88,1.57,1.29,1.29,0,0,1-.45.27l-.09-.21a1.89,1.89,0,0,0,.45-.28,2.2,2.2,0,0,0,.44-.65.17.17,0,0,0,0-.21l-1-2.4h.26Z" transform="translate(-52.65 -24.07)"/></g></g><g id="Group_31" data-name="Group 31"><path id="Path_62" data-name="Path 62" class="cls-1" d="M64.39,32.49h0a5.05,5.05,0,0,1,.77.39h0l.07,0a7.67,7.67,0,0,1,1.39,1,9.18,9.18,0,0,1,1.12,1.21,7.24,7.24,0,0,1,.84,1.39,9,9,0,0,1,.56,1.5,8,8,0,0,1,.26,1.6,9.84,9.84,0,0,1,0,1.63A8.26,8.26,0,0,1,69,42.88a9.08,9.08,0,0,1-.7,1.56L61.52,56.2l-4.86-2.8,6.49-11.23.33-.54a14.7,14.7,0,0,0,2-5.67,5.94,5.94,0,0,0-.12-2.14,2.12,2.12,0,0,0-.93-1.3A0,0,0,0,0,64.39,32.49Z" transform="translate(-52.65 -24.07)"/><g id="Group_20" data-name="Group 20"><path id="Path_63" data-name="Path 63" class="cls-2" d="M69.44,39.63a7.86,7.86,0,0,0-.26-1.6,9.14,9.14,0,0,0-.56-1.51,10.88,10.88,0,0,0-.85-1.38,7.55,7.55,0,0,0-1.12-1.21,9.7,9.7,0,0,0-1.38-1l-.07,0h0a3.71,3.71,0,0,0-.77-.39h0l0,0a2,2,0,0,1,.93,1.3A5.51,5.51,0,0,1,65.52,36a15,15,0,0,1-2,5.66,4.53,4.53,0,0,1-.34.55l-2.66,4.61a8.42,8.42,0,0,1,5.12,2.35l2.72-4.7a8.56,8.56,0,0,0,1.07-3.18A12.35,12.35,0,0,0,69.44,39.63Z" transform="translate(-52.65 -24.07)"/><path id="Path_64" data-name="Path 64" class="cls-1" d="M56.68,53.38l4.85,2.81,4.09-7.07a8.37,8.37,0,0,0-5.12-2.35Z" transform="translate(-52.65 -24.07)"/></g><g id="Group_21" data-name="Group 21"><path id="Path_65" data-name="Path 65" class="cls-2" d="M69.23,38.3l0-.27a8.71,8.71,0,0,0-.56-1.5,9.34,9.34,0,0,0-.84-1.39,7.61,7.61,0,0,0-1.13-1.21,9.7,9.7,0,0,0-1.38-1l-.07,0h0a3.71,3.71,0,0,0-.77-.39h0l0,0a2,2,0,0,1,.93,1.3,4.34,4.34,0,0,1,.16,1.08A8.6,8.6,0,0,1,69.23,38.3Z" transform="translate(-52.65 -24.07)"/><path id="Path_66" data-name="Path 66" class="cls-2" d="M62,50.8a8.31,8.31,0,0,1-3.4-.73l-1.91,3.31,4.85,2.81L65,50.26A8.3,8.3,0,0,1,62,50.8Z" transform="translate(-52.65 -24.07)"/><path id="Path_67" data-name="Path 67" class="cls-1" d="M65,50.26l3.39-5.84a8.37,8.37,0,0,0,.7-1.56,9,9,0,0,0,.37-1.62,7.41,7.41,0,0,0,0-1.63,7.51,7.51,0,0,0-.21-1.33,8.37,8.37,0,0,0-3.7-3.39,6.26,6.26,0,0,1,0,1.06,15.11,15.11,0,0,1-2,5.66,3.77,3.77,0,0,1-.34.54l-4.57,7.92a8.33,8.33,0,0,0,6.36.19Z" transform="translate(-52.65 -24.07)"/></g><g id="Group_22" data-name="Group 22"><path id="Path_68" data-name="Path 68" class="cls-2" d="M69.44,39.63a7.37,7.37,0,0,0-.21-1.33,8.21,8.21,0,0,0-3.7-3.39,6.14,6.14,0,0,1,0,1.05c0,.2,0,.4-.09.62a8.32,8.32,0,0,1,3.72,5.93,7.7,7.7,0,0,0,.26-1.23A8.28,8.28,0,0,0,69.44,39.63Z" transform="translate(-52.65 -24.07)"/><path id="Path_69" data-name="Path 69" class="cls-1" d="M65.41,36.56a15.28,15.28,0,0,1-1.93,5,6.16,6.16,0,0,1-.33.55l-4.58,7.91a8.33,8.33,0,0,0,6.36.19l3.39-5.84a8.37,8.37,0,0,0,.7-1.56l.1-.37A8.33,8.33,0,0,0,65.41,36.56Z" transform="translate(-52.65 -24.07)"/></g><g id="Group_23" data-name="Group 23"><path id="Path_70" data-name="Path 70" class="cls-2" d="M65.41,36.56a13.33,13.33,0,0,1-.47,1.86,8.33,8.33,0,0,1,2.45,5.91,8.47,8.47,0,0,1-.31,2.24l1.26-2.17a9.08,9.08,0,0,0,.7-1.56l.1-.37A8.43,8.43,0,0,0,65.41,36.56Z" transform="translate(-52.65 -24.07)"/><path id="Path_71" data-name="Path 71" class="cls-2" d="M64.9,50.28l0,0,.06-.07A.31.31,0,0,0,64.9,50.28Z" transform="translate(-52.65 -24.07)"/><path id="Path_72" data-name="Path 72" class="cls-1" d="M64.94,38.44a19.26,19.26,0,0,1-1.44,3.17,4.53,4.53,0,0,1-.34.55l-4.57,7.91a8.24,8.24,0,0,0,3.4.73,8.5,8.5,0,0,0,2.91-.52.26.26,0,0,1,.09-.09l2.07-3.6a8.54,8.54,0,0,0,.31-2.25A8.22,8.22,0,0,0,64.94,38.44Z" transform="translate(-52.65 -24.07)"/></g><g id="Group_24" data-name="Group 24"><path id="Path_73" data-name="Path 73" class="cls-2" d="M65.41,36.56a13.33,13.33,0,0,1-.47,1.86,8.33,8.33,0,0,1,2.45,5.91,8.47,8.47,0,0,1-.31,2.24l1.26-2.17a9.08,9.08,0,0,0,.7-1.56l.1-.37A8.43,8.43,0,0,0,65.41,36.56Z" transform="translate(-52.65 -24.07)"/><path id="Path_74" data-name="Path 74" class="cls-2" d="M64.9,50.28l0,0,.06-.07A.31.31,0,0,0,64.9,50.28Z" transform="translate(-52.65 -24.07)"/><path id="Path_75" data-name="Path 75" class="cls-1" d="M64.94,38.44a19.26,19.26,0,0,1-1.44,3.17,4.53,4.53,0,0,1-.34.55l-4.57,7.91a8.24,8.24,0,0,0,3.4.73,8.5,8.5,0,0,0,2.91-.52.26.26,0,0,1,.09-.09l2.07-3.6a8.54,8.54,0,0,0,.31-2.25A8.22,8.22,0,0,0,64.94,38.44Z" transform="translate(-52.65 -24.07)"/></g><g id="Group_30" data-name="Group 30"><path id="Path_76" data-name="Path 76" class="cls-1" d="M57.71,47.77h0a6.12,6.12,0,0,1-.77-.38l0,0-.07,0a7.53,7.53,0,0,1-1.39-1,9.18,9.18,0,0,1-1.12-1.21,7.48,7.48,0,0,1-.84-1.38,9.14,9.14,0,0,1-.56-1.51,8.77,8.77,0,0,1-.27-1.6,9.84,9.84,0,0,1,0-1.63,8.26,8.26,0,0,1,.37-1.62,8.37,8.37,0,0,1,.7-1.56l6.79-11.75,4.86,2.81L58.94,38.1l-.34.55a14.87,14.87,0,0,0-2,5.66,5.93,5.93,0,0,0,.13,2.14,2.06,2.06,0,0,0,.93,1.3l.05,0Z" transform="translate(-52.65 -24.07)"/><g id="Group_25" data-name="Group 25"><path id="Path_77" data-name="Path 77" class="cls-2" d="M52.68,40.63a7.86,7.86,0,0,0,.26,1.6,9.14,9.14,0,0,0,.56,1.51,9.78,9.78,0,0,0,.84,1.38,8,8,0,0,0,1.12,1.21,9.58,9.58,0,0,0,1.39,1l.07,0,0,0a4.24,4.24,0,0,0,.77.38h0l-.05,0a2,2,0,0,1-.93-1.3,5.7,5.7,0,0,1-.13-2.14,15.4,15.4,0,0,1,2-5.66c.11-.19.22-.37.34-.54l2.66-4.62a8.42,8.42,0,0,1-5.12-2.35l-2.7,4.7A8.56,8.56,0,0,0,52.71,39,7.22,7.22,0,0,0,52.68,40.63Z" transform="translate(-52.65 -24.07)"/><path id="Path_78" data-name="Path 78" class="cls-1" d="M65.43,26.86l-4.86-2.79-4.09,7.07a8.42,8.42,0,0,0,5.12,2.35Z" transform="translate(-52.65 -24.07)"/></g><g id="Group_26" data-name="Group 26"><path id="Path_79" data-name="Path 79" class="cls-2" d="M52.89,42l0,.27a9,9,0,0,0,.56,1.5,10.27,10.27,0,0,0,.84,1.39,8.1,8.1,0,0,0,1.13,1.21,9.7,9.7,0,0,0,1.38,1,.11.11,0,0,0,.07,0l0,0a3.71,3.71,0,0,0,.77.39h0l-.05,0a2.06,2.06,0,0,1-.93-1.3,5,5,0,0,1-.16-1.09A8.4,8.4,0,0,1,52.89,42Z" transform="translate(-52.65 -24.07)"/><path id="Path_80" data-name="Path 80" class="cls-2" d="M60.11,29.44a8.1,8.1,0,0,1,3.4.74l1.91-3.32-4.85-2.79L57.15,30A8.1,8.1,0,0,1,60.11,29.44Z" transform="translate(-52.65 -24.07)"/><path id="Path_81" data-name="Path 81" class="cls-1" d="M57.15,30l-3.37,5.84a8.09,8.09,0,0,0-.7,1.56A8.75,8.75,0,0,0,52.71,39a7.41,7.41,0,0,0,0,1.63A7.62,7.62,0,0,0,52.89,42a8.3,8.3,0,0,0,3.7,3.38,6.14,6.14,0,0,1,0-1,15,15,0,0,1,2-5.66A6.16,6.16,0,0,1,59,38.1l4.56-7.92A8.14,8.14,0,0,0,57.15,30Z" transform="translate(-52.65 -24.07)"/></g><g id="Group_27" data-name="Group 27"><path id="Path_82" data-name="Path 82" class="cls-2" d="M52.68,40.63A7.51,7.51,0,0,0,52.89,42a8.32,8.32,0,0,0,3.7,3.39,6.11,6.11,0,0,1,0-1.05c0-.2.05-.4.09-.62A8.32,8.32,0,0,1,53,37.75,7.27,7.27,0,0,0,52.73,39,6.09,6.09,0,0,0,52.68,40.63Z" transform="translate(-52.65 -24.07)"/><path id="Path_83" data-name="Path 83" class="cls-1" d="M56.69,43.7a15.42,15.42,0,0,1,1.93-5.05A6.16,6.16,0,0,1,59,38.1l4.56-7.92a8.1,8.1,0,0,0-3.4-.74,8.34,8.34,0,0,0-3,.54l-3.37,5.86a8.75,8.75,0,0,0-.7,1.56l-.1.37A8.38,8.38,0,0,0,56.69,43.7Z" transform="translate(-52.65 -24.07)"/></g><g id="Group_28" data-name="Group 28"><path id="Path_84" data-name="Path 84" class="cls-2" d="M56.69,43.7a13.37,13.37,0,0,1,.48-1.86,8.32,8.32,0,0,1-2.46-5.91A8.55,8.55,0,0,1,55,33.68l-1.27,2.18a8.75,8.75,0,0,0-.7,1.56l-.1.36A8.45,8.45,0,0,0,56.69,43.7Z" transform="translate(-52.65 -24.07)"/><path id="Path_85" data-name="Path 85" class="cls-2" d="M57.2,30l-.05,0-.06.07A.48.48,0,0,0,57.2,30Z" transform="translate(-52.65 -24.07)"/><path id="Path_86" data-name="Path 86" class="cls-1" d="M57.17,41.82a19.22,19.22,0,0,1,1.43-3.17c.11-.19.22-.37.34-.55l4.57-7.92a8.16,8.16,0,0,0-3.4-.74A8.5,8.5,0,0,0,57.2,30s-.05.07-.09.09L55,33.67a8.47,8.47,0,0,0-.31,2.24A8.3,8.3,0,0,0,57.17,41.82Z" transform="translate(-52.65 -24.07)"/></g><g id="Group_29" data-name="Group 29"><path id="Path_87" data-name="Path 87" class="cls-2" d="M56.69,43.7a13.37,13.37,0,0,1,.48-1.86,8.32,8.32,0,0,1-2.46-5.91A8.55,8.55,0,0,1,55,33.68l-1.27,2.18a8.75,8.75,0,0,0-.7,1.56l-.1.36A8.45,8.45,0,0,0,56.69,43.7Z" transform="translate(-52.65 -24.07)"/><path id="Path_88" data-name="Path 88" class="cls-2" d="M57.2,30l-.05,0-.06.07A.48.48,0,0,0,57.2,30Z" transform="translate(-52.65 -24.07)"/><path id="Path_89" data-name="Path 89" class="cls-1" d="M57.17,41.82a19.22,19.22,0,0,1,1.43-3.17c.11-.19.22-.37.34-.55l4.57-7.92a8.16,8.16,0,0,0-3.4-.74A8.5,8.5,0,0,0,57.2,30s-.05.07-.09.09L55,33.67a8.47,8.47,0,0,0-.31,2.24A8.3,8.3,0,0,0,57.17,41.82Z" transform="translate(-52.65 -24.07)"/></g></g></g></svg>