<?xml version="1.0" encoding="UTF-8"?><svg id="Layer_1" xmlns="http://www.w3.org/2000/svg" viewBox="0 0 125 38.18"><defs><style>.cls-1{fill:#17382d;stroke-width:0px;}</style></defs><path class="cls-1" d="M120.25,12.15c0-.31.08-.6.23-.87.15-.27.37-.48.64-.64.27-.16.56-.23.87-.23s.6.08.87.23c.27.15.48.37.64.64.16.27.23.56.23.87s-.07.59-.22.86c-.15.27-.36.48-.63.64-.27.16-.57.24-.89.24s-.61-.08-.88-.24-.48-.37-.63-.64-.23-.55-.23-.86h0ZM120.49,12.15c0,.27.07.52.2.75s.32.42.55.55.48.2.75.2.52-.07.75-.2.41-.32.55-.54c.14-.23.2-.48.2-.75s-.07-.52-.2-.75-.32-.41-.55-.55-.48-.2-.75-.2-.52.07-.75.2-.41.32-.55.54c-.14.23-.2.48-.2.75ZM122.69,11.73c0,.12-.03.23-.1.33-.07.09-.16.17-.28.21l.55.91h-.39l-.48-.82h-.31v.82h-.34v-2.06h.6c.26,0,.44.05.56.15.12.1.18.25.18.46h0ZM121.69,12.08h.25c.12,0,.22-.03.3-.1.07-.06.11-.14.11-.24,0-.12-.03-.2-.1-.25s-.17-.08-.31-.08h-.25v.66h0Z"/><path class="cls-1" d="M25.82,25.02c-.57-.18-1-.37-1.3-.58l.22-1.7c.26.23.66.46,1.2.67.54.21,1.14.31,1.79.31.61,0,1.09-.1,1.42-.31s.5-.5.5-.88c0-.44-.18-.78-.55-1.01-.37-.23-.82-.42-1.37-.58-.6-.16-1.11-.32-1.52-.5s-.76-.45-1.06-.81c-.29-.37-.44-.85-.44-1.45,0-.82.29-1.51.88-2.06.59-.55,1.49-.82,2.72-.82.56,0,1.04.06,1.43.17s.78.26,1.17.46l-.22,1.61c-.31-.26-.66-.47-1.04-.62-.38-.15-.82-.23-1.31-.23-.57,0-1.03.11-1.36.32-.33.22-.5.54-.5.97,0,.29.08.52.24.69.16.18.38.32.67.44s.73.27,1.33.45c.74.22,1.39.54,1.93.94s.81,1.04.81,1.92c0,.78-.28,1.46-.83,2.02-.56.56-1.5.84-2.83.84-.76,0-1.42-.09-1.99-.26h.01Z"/><path class="cls-1" d="M34.99,24.61c-.78-.45-1.37-1.06-1.77-1.83s-.61-1.63-.61-2.57.19-1.73.56-2.48.91-1.34,1.63-1.78c.71-.44,1.55-.66,2.52-.66,1.23,0,2.22.36,2.99,1.08.76.72,1.15,1.71,1.15,2.98,0,.33-.03.64-.08.94h-6.95c.12,1.24.5,2.12,1.14,2.64.64.52,1.46.78,2.47.78s1.93-.19,2.76-.57l.23,1.39c-1.11.5-2.18.74-3.21.74-1.1,0-2.03-.23-2.81-.68l-.02.02ZM39.62,19.08c0-.69-.2-1.23-.59-1.63-.39-.39-.98-.59-1.76-.59s-1.35.19-1.78.56-.74.92-.92,1.65h5.05,0Z"/><path class="cls-1" d="M43.22,15.5h1.37l.2,1.02c.51-.46,1.02-.77,1.54-.95.52-.18,1.06-.26,1.63-.26,2.61,0,3.92,1.5,3.92,4.5v5.29h-1.76v-5.29c0-1.03-.19-1.78-.58-2.24-.39-.46-1.03-.7-1.93-.7-.57,0-1.1.1-1.57.31s-.82.52-1.06.94v6.97h-1.76v-9.6h0Z"/><path class="cls-1" d="M55.43,24.62c-.41-.44-.62-.99-.62-1.63v-6.13h-1.64l.16-1.37h1.49v-2.37l1.76-.18v2.55h2.53v1.37h-2.53v5.05c0,.67.04,1.12.12,1.37.08.25.24.41.5.48.25.07.72.11,1.4.11h.45l-.14,1.41h-1.59c-.85,0-1.48-.22-1.89-.67h0Z"/><path class="cls-1" d="M60.61,11.38h1.76v1.96h-1.76v-1.96ZM60.61,15.5h1.76v9.6h-1.76v-9.6Z"/><path class="cls-1" d="M64.76,15.5h1.37l.2,1.02c.51-.46,1.02-.77,1.54-.95.52-.18,1.06-.26,1.63-.26,2.61,0,3.92,1.5,3.92,4.5v5.29h-1.76v-5.29c0-1.03-.19-1.78-.58-2.24s-1.03-.7-1.93-.7c-.57,0-1.1.1-1.57.31s-.82.52-1.06.94v6.97h-1.76v-9.6h0Z"/><path class="cls-1" d="M77.5,24.61c-.78-.45-1.37-1.06-1.77-1.83-.4-.77-.61-1.63-.61-2.57s.19-1.73.56-2.48.91-1.34,1.63-1.78c.71-.44,1.55-.66,2.52-.66,1.23,0,2.22.36,2.99,1.08.76.72,1.15,1.71,1.15,2.98,0,.33-.03.64-.08.94h-6.95c.12,1.24.5,2.12,1.14,2.64.64.52,1.46.78,2.47.78s1.93-.19,2.76-.57l.23,1.39c-1.11.5-2.18.74-3.21.74-1.1,0-2.03-.23-2.81-.68l-.02.02ZM82.13,19.08c0-.69-.2-1.23-.59-1.63s-.98-.59-1.76-.59-1.35.19-1.78.56c-.43.37-.74.92-.92,1.65h5.05,0Z"/><path class="cls-1" d="M86.31,24.62c-.4-.44-.6-.99-.6-1.65v-12.57h1.76v11.55c0,.57.04.99.11,1.25s.21.44.42.53.55.14,1.02.14l-.25,1.41h-.57c-.86,0-1.49-.22-1.89-.67h0Z"/><path class="cls-1" d="M97.72,16.49c.64.8.96,1.88.96,3.25v5.35h-1.76v-5.13c0-1.06-.19-1.84-.58-2.34s-.98-.75-1.79-.75c-.5,0-.95.11-1.37.34-.42.23-.77.55-1.06.97v6.91h-1.78v-14.69h1.78v6.01c.38-.37.79-.64,1.24-.83s.98-.28,1.58-.28c1.21,0,2.14.4,2.78,1.19Z"/><path class="cls-1" d="M101.78,24.24c-.61-.7-.91-1.75-.91-3.16v-5.58h1.76v5.09c0,1.04.18,1.83.54,2.35s.92.78,1.69.78c.47,0,.9-.09,1.29-.27s.7-.46.92-.82v-7.13h1.76v9.6h-1.57l-.2-1.06c-.31.43-.68.75-1.11.95-.42.2-.94.3-1.56.3-1.15,0-2.03-.35-2.63-1.05h.02Z"/><path class="cls-1" d="M118.23,15.99c.66.46,1.17,1.07,1.52,1.83s.53,1.59.53,2.48-.19,1.75-.58,2.52c-.38.76-.91,1.37-1.57,1.81s-1.39.67-2.18.67c-.59,0-1.16-.12-1.7-.36-.55-.24-.97-.58-1.27-1.01l-.2,1.17h-1.57v-14.69h1.76v6.21c.35-.4.79-.72,1.32-.96.53-.23,1.08-.35,1.65-.35.86,0,1.62.23,2.28.69h0ZM117.72,22.73c.5-.66.75-1.47.75-2.44s-.25-1.81-.75-2.46c-.5-.65-1.16-.97-1.99-.97s-1.49.3-2.04.89-.82,1.44-.82,2.54.27,1.99.81,2.57c.54.57,1.22.86,2.05.86s1.48-.33,1.99-.99Z"/><path class="cls-1" d="M13.98,10.12h0c.36.14.54.25.86.43h.02s.05.04.08.06c.55.32,1.07.69,1.54,1.11.46.41.88.86,1.25,1.35.36.48.68,1,.95,1.55.26.54.47,1.11.63,1.69.16.58.26,1.18.3,1.78.04.6.03,1.21-.05,1.81-.08.61-.21,1.22-.41,1.8-.2.6-.46,1.18-.78,1.73l-7.59,13.15-5.42-3.13,7.24-12.54c.13-.2.25-.41.37-.62,1.25-2.16,2.04-4.4,2.24-6.32.1-.93.05-1.74-.15-2.39-.2-.68-.55-1.16-1.04-1.44-.02,0-.04-.02-.05-.03h.01Z"/><path class="cls-1" d="M19.61,18.09c-.04-.6-.14-1.2-.3-1.78s-.37-1.15-.63-1.69c-.27-.54-.58-1.06-.95-1.55-.37-.49-.79-.95-1.25-1.35-.47-.42-.99-.79-1.54-1.11-.03-.02-.06-.03-.08-.05h-.02c-.32-.2-.5-.3-.86-.45h0s.04.02.05.03c.49.28.84.77,1.04,1.44.19.65.24,1.46.15,2.39-.2,1.92-1,4.16-2.24,6.32-.12.21-.24.41-.37.62l-2.97,5.14c2.22.19,4.21,1.15,5.71,2.62l3.03-5.25c.32-.55.58-1.13.78-1.73.19-.58.33-1.19.41-1.8.07-.6.09-1.21.05-1.81h-.01Z"/><path class="cls-1" d="M5.36,33.46l5.42,3.13,4.57-7.91c-1.5-1.47-3.5-2.43-5.71-2.62l-4.27,7.4h-.01Z"/><path class="cls-1" d="M19.38,16.61c-.02-.1-.04-.2-.06-.29-.16-.58-.37-1.15-.63-1.69-.27-.54-.58-1.06-.95-1.55-.37-.49-.79-.95-1.25-1.35-.47-.42-.99-.79-1.54-1.11-.03-.02-.06-.03-.08-.05h-.02c-.32-.2-.5-.3-.86-.45h0s.04.02.05.03c.49.28.84.77,1.04,1.44.11.36.17.77.18,1.22,1.73.81,3.17,2.14,4.13,3.79h-.01Z"/><path class="cls-1" d="M11.3,30.58c-1.36,0-2.64-.3-3.81-.82l-2.13,3.7,5.42,3.13,3.82-6.62c-1.03.39-2.14.61-3.3.61Z"/><path class="cls-1" d="M14.61,29.97l3.77-6.53c.32-.55.58-1.13.78-1.73.19-.58.33-1.19.41-1.8.07-.6.09-1.21.05-1.81-.04-.5-.12-1-.23-1.48-.95-1.65-2.39-2.98-4.13-3.79.02.36,0,.75-.04,1.17-.2,1.92-1,4.16-2.24,6.32-.12.21-.24.41-.37.62l-5.11,8.84c1.16.52,2.45.82,3.81.82,1.16,0,2.27-.22,3.3-.61v-.02Z"/><path class="cls-1" d="M19.61,18.09c-.04-.5-.12-1-.23-1.48-.95-1.65-2.39-2.98-4.13-3.79.02.36,0,.75-.04,1.17-.02.22-.06.45-.1.68,2.23,1.46,3.8,3.84,4.16,6.61.13-.45.23-.91.29-1.38.07-.6.09-1.21.05-1.81Z"/><path class="cls-1" d="M15.12,14.67c-.3,1.76-1.05,3.73-2.15,5.64-.12.21-.24.41-.37.62l-5.11,8.84c1.16.52,2.45.82,3.81.82,1.16,0,2.27-.22,3.3-.61l3.77-6.53c.32-.55.58-1.13.78-1.73.05-.14.08-.28.12-.42-.36-2.77-1.92-5.16-4.16-6.61v-.02Z"/><path class="cls-1" d="M15.12,14.67c-.11.67-.29,1.37-.53,2.08,1.69,1.69,2.74,4.02,2.74,6.6,0,.87-.13,1.71-.35,2.51l1.4-2.43c.32-.55.58-1.13.78-1.73.05-.14.08-.28.12-.42-.36-2.77-1.92-5.16-4.16-6.61Z"/><path class="cls-1" d="M14.56,29.99s.03-.01.05-.02l.05-.09-.1.1h0Z"/><path class="cls-1" d="M14.59,16.76c-.39,1.16-.93,2.37-1.61,3.55-.12.21-.24.41-.37.62l-5.11,8.84c1.16.52,2.45.82,3.81.82,1.15,0,2.24-.22,3.25-.6.03-.03.07-.07.1-.1l2.32-4.01c.22-.8.35-1.64.35-2.51,0-2.58-1.05-4.91-2.74-6.6h0Z"/><path class="cls-1" d="M15.12,14.67c-.11.67-.29,1.37-.53,2.08,1.69,1.69,2.74,4.02,2.74,6.6,0,.87-.13,1.71-.35,2.51l1.4-2.43c.32-.55.58-1.13.78-1.73.05-.14.08-.28.12-.42-.36-2.77-1.92-5.16-4.16-6.61Z"/><path class="cls-1" d="M14.56,29.99s.03-.01.05-.02l.05-.09-.1.1h0Z"/><path class="cls-1" d="M14.59,16.76c-.39,1.16-.93,2.37-1.61,3.55-.12.21-.24.41-.37.62l-5.11,8.84c1.16.52,2.45.82,3.81.82,1.15,0,2.24-.22,3.25-.6.03-.03.07-.07.1-.1l2.32-4.01c.22-.8.35-1.64.35-2.51,0-2.58-1.05-4.91-2.74-6.6h0Z"/><path class="cls-1" d="M6.52,27.18h0c-.36-.14-.54-.25-.86-.43h-.02s-.05-.04-.08-.06c-.55-.32-1.07-.69-1.54-1.11-.46-.41-.88-.86-1.25-1.35-.36-.48-.68-1-.95-1.55-.26-.54-.47-1.11-.63-1.69s-.26-1.18-.3-1.78-.03-1.21.05-1.81c.08-.61.21-1.22.41-1.8.2-.6.46-1.18.78-1.73L9.72.71l5.42,3.13-7.24,12.54c-.13.2-.25.41-.37.62-1.25,2.16-2.04,4.4-2.24,6.32-.1.93-.05,1.74.15,2.39.2.68.55,1.16,1.04,1.44.02,0,.04.02.05.03h-.01Z"/><path class="cls-1" d="M.89,19.21c.04.6.14,1.2.3,1.78.16.58.37,1.15.63,1.69.27.54.58,1.06.95,1.55s.79.95,1.25,1.35c.47.42.99.79,1.54,1.11.03.02.06.03.08.05h.02c.32.2.5.3.86.45h0s-.04-.02-.05-.03c-.49-.28-.84-.77-1.04-1.44-.19-.65-.24-1.46-.15-2.39.2-1.92,1-4.16,2.24-6.32.12-.21.24-.41.37-.62l2.97-5.14c-2.22-.19-4.21-1.15-5.71-2.62l-3.03,5.25c-.32.55-.58,1.13-.78,1.73-.19.58-.33,1.19-.41,1.8-.07.6-.09,1.21-.05,1.81h.01Z"/><path class="cls-1" d="M15.14,3.84L9.72.71l-4.57,7.91c1.5,1.47,3.5,2.43,5.71,2.62l4.27-7.4h0Z"/><path class="cls-1" d="M1.12,20.7c.02.1.04.2.06.29.16.58.37,1.15.63,1.69.27.54.58,1.06.95,1.55s.79.95,1.25,1.35c.47.42.99.79,1.54,1.11.03.02.06.03.08.05h.02c.32.2.5.3.86.45h0s-.04-.02-.05-.03c-.49-.28-.84-.77-1.04-1.44-.11-.36-.17-.77-.18-1.22-1.73-.81-3.17-2.14-4.13-3.79h0Z"/><path class="cls-1" d="M9.2,6.72c1.36,0,2.64.3,3.81.82l2.13-3.7L9.72.71l-3.82,6.62c1.03-.39,2.14-.61,3.3-.61Z"/><path class="cls-1" d="M5.9,7.33l-3.77,6.53c-.32.55-.58,1.13-.78,1.73-.19.58-.33,1.19-.41,1.8-.07.6-.09,1.21-.05,1.81.04.5.12,1,.23,1.48.95,1.65,2.39,2.98,4.13,3.79-.02-.36,0-.75.04-1.17.2-1.92,1-4.16,2.24-6.32.12-.21.24-.41.37-.62l5.11-8.84c-1.16-.52-2.45-.82-3.81-.82-1.16,0-2.27.22-3.3.61v.02Z"/><path class="cls-1" d="M.89,19.21c.04.5.12,1,.23,1.48.95,1.65,2.39,2.98,4.13,3.79-.02-.36,0-.75.04-1.17.02-.22.06-.45.1-.68-2.23-1.46-3.8-3.84-4.16-6.61-.13.45-.23.91-.29,1.38-.07.6-.09,1.21-.05,1.81Z"/><path class="cls-1" d="M5.38,22.63c.3-1.76,1.05-3.73,2.15-5.64.12-.21.24-.41.37-.62l5.11-8.84c-1.16-.52-2.45-.82-3.81-.82-1.16,0-2.27.22-3.3.61l-3.77,6.53c-.32.55-.58,1.13-.78,1.73-.05.14-.08.28-.12.42.36,2.77,1.92,5.16,4.16,6.61v.02Z"/><path class="cls-1" d="M5.38,22.63c.11-.67.29-1.37.53-2.08-1.69-1.69-2.74-4.02-2.74-6.6,0-.87.13-1.71.35-2.51l-1.4,2.43c-.32.55-.58,1.13-.78,1.73-.05.14-.08.28-.12.42.36,2.77,1.92,5.16,4.16,6.61Z"/><path class="cls-1" d="M5.95,7.32s-.03.01-.05.02l-.05.09.1-.1h0Z"/><path class="cls-1" d="M5.91,20.55c.39-1.16.93-2.37,1.61-3.55.12-.21.24-.41.37-.62l5.11-8.84c-1.16-.52-2.45-.82-3.81-.82-1.15,0-2.24.22-3.25.6l-.1.1-2.32,4.01c-.22.8-.35,1.64-.35,2.51,0,2.58,1.05,4.91,2.74,6.6h0Z"/><path class="cls-1" d="M5.38,22.63c.11-.67.29-1.37.53-2.08-1.69-1.69-2.74-4.02-2.74-6.6,0-.87.13-1.71.35-2.51l-1.4,2.43c-.32.55-.58,1.13-.78,1.73-.05.14-.08.28-.12.42.36,2.77,1.92,5.16,4.16,6.61Z"/><path class="cls-1" d="M5.95,7.32s-.03.01-.05.02l-.05.09.1-.1h0Z"/><path class="cls-1" d="M5.91,20.55c.39-1.16.93-2.37,1.61-3.55.12-.21.24-.41.37-.62l5.11-8.84c-1.16-.52-2.45-.82-3.81-.82-1.15,0-2.24.22-3.25.6l-.1.1-2.32,4.01c-.22.8-.35,1.64-.35,2.51,0,2.58,1.05,4.91,2.74,6.6h0Z"/></svg>